<?xml version="1.0" encoding="UTF-8"?>
<svg id="Layer_2" data-name="Layer 2" xmlns="http://www.w3.org/2000/svg" viewBox="0 0 60.36 60.36">
  <defs>
    <style>
      .cls-1 {
        fill: #f1f2f3;
        stroke-width: 0px;
      }
    </style>
  </defs>
  <g id="Controller">
    <path class="cls-1" d="M60.36,60.36v-30.18C60.36,13.51,46.84,0,30.18,0S0,13.51,0,30.18c0,6.08,1.8,11.74,4.89,16.47.34.52.69,1.03,1.07,1.53,5.5,7.39,14.3,12.17,24.22,12.17h1.37c-1.14-5.09-4.47-9.46-8.93-11.9-.63-.26-1.24-.55-1.83-.87-1.51-.82-2.91-1.83-4.15-2.99-3.84-3.61-6.23-8.73-6.23-14.41,0-10.92,8.85-19.77,19.77-19.77,8.78,0,16.23,5.73,18.8,13.65h-1.95c-2.51-6.88-9.12-11.8-16.85-11.8-9.89,0-17.93,8.04-17.93,17.93,0,6.78,3.78,12.69,9.35,15.74.62.26,1.24.55,1.83.87,1.52.82,2.91,1.83,4.15,3,2.93,2.76,5.03,6.48,5.86,10.58h26.92Z"/>
  </g>
</svg>