<?xml version="1.0" encoding="UTF-8"?>
<svg id="Layer_1" data-name="Layer 1" xmlns="http://www.w3.org/2000/svg" viewBox="0 0 12.82 12.82">
  <defs>
    <style>
      .cls-1 {
        fill: #000;
      }

      .cls-1, .cls-2 {
        stroke-width: 0px;
      }

      .cls-2 {
        fill: #fff;
      }
    </style>
  </defs>
  <path class="cls-1" d="M12.82,12.82v-6.41c0-3.54-2.87-6.41-6.41-6.41S0,2.87,0,6.41c0,1.29.38,2.49,1.04,3.5.07.11.15.22.23.33,1.17,1.57,3.04,2.59,5.14,2.59h.29c-.24-1.08-.95-2.01-1.9-2.53-.13-.05-.26-.12-.39-.19-.32-.17-.62-.39-.88-.64-.81-.77-1.32-1.85-1.32-3.06,0-2.32,1.88-4.2,4.2-4.2,1.87,0,3.45,1.22,3.99,2.9h-.41c-.53-1.46-1.94-2.51-3.58-2.51-2.1,0-3.81,1.71-3.81,3.81,0,1.44.8,2.7,1.99,3.34.13.05.26.12.39.18.32.17.62.39.88.64.62.59,1.07,1.38,1.24,2.25h5.72Z"/>
  <path class="cls-2" d="M10.4,5.11h-.41c-.53-1.46-1.94-2.51-3.58-2.51-2.1,0-3.81,1.71-3.81,3.81,0,1.44.8,2.7,1.99,3.34.13.05.26.12.39.18.32.17.62.39.88.64.62.59,1.07,1.38,1.24,2.25h-.4c-.24-1.08-.95-2.01-1.9-2.53-.13-.05-.26-.12-.39-.19-.32-.17-.62-.39-.88-.64-.81-.77-1.32-1.85-1.32-3.06,0-2.32,1.88-4.2,4.2-4.2,1.87,0,3.45,1.22,3.99,2.9Z"/>
</svg>