<?xml version="1.0" encoding="UTF-8"?>
<svg id="Layer_1" data-name="Layer 1" xmlns="http://www.w3.org/2000/svg" viewBox="0 0 12.31 12.31">
  <defs>
    <style>
      .cls-1 {
        fill: #f1f2f3;
        stroke-width: 0px;
      }
    </style>
  </defs>
  <path class="cls-1" d="M12.31,12.31v-6.16c0-3.4-2.76-6.16-6.16-6.16S0,2.76,0,6.16c0,1.24.37,2.39,1,3.36.07.11.14.21.22.31,1.12,1.51,2.92,2.48,4.94,2.48h.28c-.23-1.04-.91-1.93-1.82-2.43-.13-.05-.25-.11-.37-.18-.31-.17-.59-.37-.85-.61-.78-.74-1.27-1.78-1.27-2.94,0-2.23,1.81-4.03,4.03-4.03,1.79,0,3.31,1.17,3.84,2.78h-.4c-.51-1.4-1.86-2.41-3.44-2.41-2.02,0-3.66,1.64-3.66,3.66,0,1.38.77,2.59,1.91,3.21.13.05.25.11.37.18.31.17.59.37.85.61.6.56,1.03,1.32,1.19,2.16h5.49Z"/>
</svg>